<svg width="7" height="14" viewBox="0 0 7 14" fill="none" xmlns="http://www.w3.org/2000/svg">
<path d="M2.72222 8.6665V12.9511L3.25743 13.854C3.37288 14.0487 3.62736 14.0487 3.74281 13.854L4.27778 12.9511V8.6665C4.02524 8.719 3.7659 8.75017 3.5 8.75017C3.2341 8.75017 2.97476 8.719 2.72222 8.6665ZM3.5 0C1.56698 0 0 1.76289 0 3.93758C0 6.11227 1.56698 7.87515 3.5 7.87515C5.43302 7.87515 7 6.11227 7 3.93758C7 1.76289 5.43302 0 3.5 0ZM3.5 2.07817C2.58854 2.07817 1.84722 2.91217 1.84722 3.93758C1.84722 4.1186 1.71646 4.26571 1.55556 4.26571C1.39465 4.26571 1.26389 4.1186 1.26389 3.93758C1.26389 2.5504 2.26722 1.4219 3.5 1.4219C3.6609 1.4219 3.79167 1.56902 3.79167 1.75003C3.79167 1.93105 3.6609 2.07817 3.5 2.07817Z" fill="black"/>
</svg>
